<svg xmlns="http://www.w3.org/2000/svg" width="254" height="289" viewBox="0 0 254 289">
  <g fill="none" transform="translate(22)">
    <path fill="#FEDAC6" d="M162.625732,81.23528 L162.625732,148.13792 C162.6352,154.37408 161.3304,160.54808 158.80256,166.24944 L158.80256,166.24944 C149.5172,187.17104 128.79216,200.67096 105.9016,200.704 L105.9016,200.704 C84.87976,200.69896 65.5116,189.30688 55.2944,170.93216 L53.52648,167.77824 C49.85176,161.17416 47.92592,153.73848 47.9354049,146.17848 L47.9354049,81.23528 L81.38648,43.0052 L129.17408,43.0052 L162.625732,81.23528 Z"/>
    <path fill="#F5C4B0" d="M63.60984,63.31472 L47.9354049,81.23528 L47.9354049,146.17848 C47.92592,153.73848 49.85176,161.17416 53.52648,167.77824 L55.2944,170.93216 C59.11248,177.77984 64.30256,183.76792 70.53872,188.51784 C67.05048,157.69544 57.49296,119.46536 63.60984,63.31472 Z"/>
    <path fill="#FEDAC6" d="M162.62568,81.23528 L157.8472,81.23528 L157.8472,109.90784 L162.62568,109.90784 C170.54408,109.90784 176.96168,103.49024 176.96168,95.57184 C176.96168,87.65344 170.54408,81.23528 162.62568,81.23528 Z"/>
    <path fill="#F5C4B0" d="M33.59944,95.57128 C33.59944,103.48968 40.01704,109.90728 47.93544,109.90728 L52.71392,109.90728 L52.71392,81.23472 L47.93544,81.23472 C40.0176,81.23528 33.59944,87.65792 33.59944,95.57128 Z"/>
    <path fill="#FEDAC6" d="M105.28056,232.912407 C122.66576,232.92192 138.38272,222.56192 145.23096,206.58176 L146.85552,202.8068 L135.8644,201.51656 C131.52048,200.99072 127.48232,199.02232 124.3956,195.92552 L86.16552,195.92552 C83.07824,199.02232 79.04064,200.99128 74.69672,201.51656 L63.7056,202.8068 L65.33016,206.58176 C72.1784,222.5664 87.89088,232.92192 105.28056,232.912407 Z"/>
    <path fill="#FFF" d="M172.46992,205.81736 L146.85608,202.8068 L145.23152,206.58176 C135.74568,228.6452 110.16992,238.8428 88.10648,229.35752 C77.87976,224.96096 69.73232,216.80848 65.33072,206.58176 L63.70616,202.8068 L38.09232,205.81736 C19.10664,208.35472 4.928,224.55496 4.928,243.71256 L4.928,286.72112 L205.63536,286.72112 L205.63536,243.71256 C205.63536,224.55944 191.4556,208.3592 172.46992,205.81736 Z"/>
    <g fill="#553321" transform="translate(47.6 4.48)">
      <path d="M96.67504,38.5252 L20.21544,38.5252 C17.1472,38.52016 14.1176,37.80336 11.37472,36.4224 L11.37472,36.4224 C1.64976,31.50056 -2.24448,19.6252 2.67736,9.90024 C3.5756,8.12728 4.73704,6.49768 6.118,5.0736 L10.65792,0.29512 L15.4364,9.85264 L75.98304,9.85264 C90.84488,9.85264 105.46816,24.42776 100.68912,38.5252 L96.67504,38.5252 L96.67504,38.5252 Z"/>
      <path d="M100.68912,38.5252 C110.69128,41.78888 117.14248,51.50432 116.26776,61.98864 L115.02512,76.75472 L81.57408,38.52464 C81.57464,38.5252 100.68912,38.5252 100.68912,38.5252 Z"/>
    </g>
    <path fill="#422719" d="M81.38704,43.0052 L47.936,81.23528 L46.69336,66.4692 C45.8332,55.95576 54.00472,47.35416 62.272,43.00576 C62.272,43.0052 81.38704,43.0052 81.38704,43.0052 Z"/>
    <path fill="#553321" d="M143.51064,144.88824 C142.10112,147.11984 139.14768,147.784 136.91608,146.36944 C136.04136,145.81504 135.37272,144.99296 135.0048,144.02808 L131.61176,135.18736 C130.19272,131.44096 126.58464,128.9848 122.58008,129.02288 L87.9816,129.02288 C84.01064,129.02288 80.4552,131.47456 79.04512,135.18736 L75.65208,144.02808 C74.7152,146.49376 71.95832,147.7364 69.4876,146.79952 C68.52216,146.4316 67.6956,145.7624 67.14624,144.88824 L48.0311649,113.06176 L48.0311649,146.17848 C48.02168,153.73848 49.94752,161.17416 53.62224,167.77824 L55.39016,170.93216 C70.99288,198.85432 106.27904,208.84192 134.2012,193.2392 C145.1492,187.12232 153.81296,177.61744 158.89776,166.15312 L158.89776,166.15312 C161.38248,160.47136 162.65368,154.33544 162.625591,148.13736 L162.625591,115.164 L143.51064,144.88824 Z"/>
    <path fill="#422719" d="M.335404876 100.18176L.335404876 133.29848C.32592 140.85848 2.25176 148.29416 5.92648 154.89824L7.6944 158.05216C11.61776 165.11488 16.99376 171.27488 23.464 176.11608 20.01384 160.80512 18.18824 145.1688 18.01632 129.47536L.335404876 100.18176zM3.05984.30576C-2.4836 9.71992.65632 21.8484 10.07496 27.39184 13.10456 29.17432 16.55472 30.12072 20.07208 30.1252L72.01712 30.1252C29.008 25.34672 8.07744 11.01016 3.05984.30576z" transform="translate(47.6 12.88)"/>
    <rect width="19.115" height="23.894" x="24.042" y="262.828" fill="#FEDAC6"/>
    <rect width="19.115" height="23.894" x="4.927" y="262.828" fill="#F5C4B0"/>
    <rect width="38.23" height="23.894" x="167.404" y="262.828" fill="#FEDAC6"/>
    <path fill="#F5C4B0" d="M124.3956,195.92496 L86.16552,195.92496 C83.07824,199.02176 79.04064,200.99072 74.69672,201.516 L63.7056,202.80624 L65.33016,206.5812 C68.40288,213.76824 73.35384,219.9904 79.66616,224.59696 C92.23424,222.78088 115.55432,218.43248 133.7616,200.70344 C130.54104,199.30848 127.41568,197.71248 124.3956,195.92496 Z"/>
    <path fill="#D8D8D8" d="M24.04192,213.36728 C12.59664,217.41496 4.94144,228.22912 4.92688,240.36712 L4.92688,262.82704 L24.04192,262.82704 L24.04192,213.36728 Z"/>
    <path fill="#000" d="M76.608 91.9316406C81.8864725 91.9316406 86.16552 100.849753 86.16552 95.57128 86.16552 90.2928075 81.8864725 86.01376 76.608 86.01376 71.3295275 86.01376 67.05048 90.2928075 67.05048 95.57128 67.05048 100.849753 71.3295275 91.9316406 76.608 91.9316406zM134.108 91.9316406C139.386473 91.9316406 143.66552 100.849753 143.66552 95.57128 143.66552 90.2928075 139.386473 86.01376 134.108 86.01376 128.829527 86.01376 124.55048 90.2928075 124.55048 95.57128 124.55048 100.849753 128.829527 91.9316406 134.108 91.9316406zM105.28056 133.80136L100.50208 133.80136C99.13064 133.80136 97.82584 133.21336 96.91808 132.18632 96.01032 131.15872 95.58976 129.79232 95.75664 128.4304L100.53512 90.20032 110.01592 91.38528 105.28 129.3236 105.28 133.80136 105.28056 133.80136zM162.62568 114.68632L157.8472 114.68632 157.8472 105.1288 162.62568 105.1288C167.8964 105.1288 172.1832 100.842 172.1832 95.57128 172.1832 90.30056 167.8964 86.01376 162.62568 86.01376L157.8472 86.01376 157.8472 76.45624 162.62568 76.45624C173.16768 76.45624 181.74072 85.02928 181.74072 95.57128 181.74072 106.11328 173.16768 114.68632 162.62568 114.68632zM52.71448 114.68632L47.936 114.68632C37.394 114.68632 28.82096 106.11328 28.82096 95.57128 28.82096 85.02928 37.394 76.45624 47.936 76.45624L52.71448 76.45624 52.71448 86.01376 47.936 86.01376C42.66528 86.01376 38.37848 90.30056 38.37848 95.57128 38.37848 100.842 42.66528 105.1288 47.936 105.1288L52.71448 105.1288 52.71448 114.68632z"/>
    <path fill="#000" d="M105.90664,205.48248 C83.16,205.47744 62.16672,193.12944 51.11848,173.25448 L49.36008,170.1196 C45.28832,162.8032 43.15248,154.5264 43.1575111,146.17344 L43.1575111,76.45624 L52.71504,76.45624 L52.71504,146.17792 C52.71,152.90632 54.43536,159.5776 57.70408,165.4604 L59.46248,168.59024 C68.83856,185.4496 86.62976,195.91992 105.90216,195.9244 C126.87136,195.89584 145.92424,183.48064 154.43512,164.31296 C156.70984,159.19008 157.85672,153.75192 157.8472,148.14632 L157.8472,76.45624 L167.404767,76.45624 L167.404767,148.13736 C167.41424,155.0808 165.99016,161.82824 163.17056,168.18424 C153.12528,190.8116 130.6508,205.44944 105.90664,205.48248 Z"/>
    <path fill="#000" d="M105.28056,157.67136 C99.90904,157.67136 94.53808,156.81624 89.4292,155.10992 L92.4588,146.04968 C100.72608,148.8116 109.83448,148.8116 118.10624,146.04968 L121.13136,155.10992 C116.01856,156.81568 110.65208,157.67136 105.28056,157.67136 Z"/>
    <path fill="#000" d="M139.37224 151.89832C138.03888 151.89832 136.70104 151.61664 135.45392 151.05272 133.12208 150.0016 131.34408 148.1088 130.43632 145.71984L127.0528 136.9032C126.35056 135.044 124.55352 133.8064 122.57504 133.8064L87.97712 133.8064C85.83624 133.69664 84.1204 135.01992 83.41368 136.88864L80.01112 145.74392C79.29432 147.64568 77.9324 149.31392 76.188 150.41768 74.0376 151.7796 71.47616 152.21472 68.9864 151.66984 66.49664 151.11096 64.37032 149.61016 63.00336 147.45472L43.88832 117.24832 51.96464 112.14 71.07968 142.34192 74.4772 133.48216C76.58952 127.90512 81.86024 124.1352 88.0152 124.24944L122.56552 124.24944C128.48136 124.24944 133.86744 127.96728 135.96968 133.49616L139.35768 142.31784 158.578 112.126 166.6448 117.25336 147.434 147.45976C146.33472 149.1896 144.66704 150.54704 142.75576 151.27336 141.66152 151.6928 140.51912 151.89832 139.37224 151.89832zM148.28912 47.78424L67.81544 47.78424C64.01136 47.7792 60.21736 46.87648 56.82936 45.1752 44.758 39.06336 39.90784 24.28272 46.0152 12.22592 47.12848 10.02288 48.56712 8.00128 50.28744 6.22832L54.79376 1.48288C55.86896.35504 57.42184-.1708 58.96576.04928 60.50464.27888 61.838 1.24376 62.53576 2.63928L65.99544 9.55416 123.58416 9.55416C133.24192 9.55416 143.24408 14.80136 149.06472 22.91576 153.91992 29.68224 155.24824 37.36208 152.81616 44.53456 152.15536 46.48392 150.3348 47.78424 148.28912 47.78424zM57.02984 13.0088C56.0168 14.084 55.19024 15.25944 54.54008 16.54016 50.81272 23.89968 53.77064 32.9168 61.13016 36.64416 63.1848 37.67624 65.50264 38.22616 67.82048 38.23064L144.4044 38.23064C144.66704 33.992 142.6936 30.44104 141.29808 28.49168 137.27448 22.88608 130.15856 19.1156 123.58304 19.1156L63.0364 19.1156C61.22536 19.1156 59.57168 18.09304 58.75968 16.47296L57.02984 13.0088z"/>
    <path fill="#000" d="M162.62568 86.01376C161.27328 86.01376 159.94944 85.43528 159.02712 84.38416L125.57608 46.15408 132.77264 39.86024 158.80704 69.61752 159.10832 66.0716C159.85872 57.47448 154.73584 49.40824 146.64552 46.44528L149.93832 37.47072C162.07184 41.91992 169.7556 54.01928 168.62776 66.89368L167.38512 81.64072C167.2272 83.552 165.93696 85.1816 164.1164 85.77912 163.6292 85.9376 163.1224 86.01376 162.62568 86.01376zM47.93544 86.01376C47.43872 86.01376 46.93696 85.93704 46.44472 85.77464 44.62416 85.17712 43.33392 83.54752 43.17152 81.63624L41.92888 66.87016C40.90632 55.05248 47.1184 43.9992 57.75616 38.72344L62.00432 47.28696C54.91248 50.80432 50.7696 58.1728 51.4528 66.0576L51.75408 69.61752 77.78848 39.86024 84.98056 46.15408 51.52952 84.38416C50.6072 85.44032 49.28784 86.01376 47.93544 86.01376zM9.70592 286.72112L.1484 286.72112.1484 243.71256C.1484 222.25616 16.18568 203.9296 37.46064 201.08144L74.14232 196.77112C77.392 196.37912 80.46472 194.87888 82.78256 192.55152L89.55408 199.29896C85.72648 203.14112 80.65624 205.61184 75.27016 206.26144L38.65064 210.56224C22.17824 212.76976 9.70088 227.02008 9.70592 243.71256L9.70592 286.72112z"/>
    <path fill="#000" d="M105.30464 237.69592C105.2856 237.69592 105.26656 237.69592 105.252 237.69592 85.93648 237.69592 68.54624 226.22712 60.93864 208.46896L57.88048 201.3536 66.66408 197.58312 69.72224 204.70352C75.82456 218.93928 89.76912 228.1384 105.25704 228.1384 105.2716 228.1384 105.2856 228.1384 105.30016 228.1384 120.78808 228.1384 134.73712 218.93928 140.83944 204.70352L143.8976 197.58312 152.6812 201.3536 149.62304 208.474C142.00984 226.22264 124.61568 237.69592 105.30464 237.69592zM47.93544 286.72112L38.37792 286.72112 38.37792 267.60608 4.92688 267.60608 4.92688 258.04856 43.15696 258.04856C45.79456 258.04856 47.93544 260.1844 47.93544 262.82704L47.93544 286.72112z"/>
    <path fill="#000" d="M210.41328,286.72112 L200.85576,286.72112 L200.85576,243.71256 C200.85576,227.02064 188.38344,212.76528 171.83432,210.55776 L135.30552,206.26648 C129.91496,205.61632 124.84472,203.14616 121.01208,199.304 L127.77856,192.55656 C130.10088,194.88392 133.17864,196.38416 136.43784,196.77616 L173.0288,201.07696 C194.37096,203.92512 210.41328,222.25616 210.41328,243.71312 L210.41328,286.72112 L210.41328,286.72112 Z"/>
    <path fill="#000" d="M172.1832,286.72112 L162.62568,286.72112 L162.62568,262.8276 C162.62568,260.18496 164.76152,258.04912 167.40416,258.04912 L205.63424,258.04912 L205.63424,267.60664 L172.1832,267.60664 L172.1832,286.72112 Z"/>
  </g>
</svg>
